<svg width="11" height="18" viewBox="0 0 11 18" fill="none" xmlns="http://www.w3.org/2000/svg">
<path d="M1.04922 16.95C0.774219 16.675 0.636719 16.325 0.636719 15.9C0.636719 15.475 0.774219 15.125 1.04922 14.85L6.89922 8.99995L1.04922 3.14995C0.774219 2.87495 0.636719 2.52495 0.636719 2.09995C0.636719 1.67495 0.774219 1.32495 1.04922 1.04995C1.32422 0.774951 1.67422 0.637451 2.09922 0.637451C2.52422 0.637451 2.87422 0.774951 3.14922 1.04995L10.0492 7.94995C10.1992 8.09995 10.3055 8.26245 10.368 8.43745C10.4305 8.61245 10.4617 8.79995 10.4617 8.99995C10.4617 9.19995 10.4305 9.38745 10.368 9.56245C10.3055 9.73745 10.1992 9.89995 10.0492 10.05L3.14922 16.95C2.87422 17.225 2.52422 17.3625 2.09922 17.3625C1.67422 17.3625 1.32422 17.225 1.04922 16.95Z" fill="#000C1F"/>
</svg>
