<svg width="20" height="14" viewBox="0 0 20 14" fill="none" xmlns="http://www.w3.org/2000/svg">
<path d="M12.3 13.3C12.1167 13.1167 12.025 12.8833 12.025 12.6C12.025 12.3167 12.1167 12.0833 12.3 11.9L16.2 7.99999H1C0.716667 7.99999 0.479167 7.90415 0.2875 7.71249C0.0958333 7.52082 0 7.28332 0 6.99999C0 6.71665 0.0958333 6.47915 0.2875 6.28749C0.479167 6.09582 0.716667 5.99999 1 5.99999H16.2L12.3 2.09999C12.1167 1.91665 12.025 1.68332 12.025 1.39999C12.025 1.11665 12.1167 0.883321 12.3 0.699988C12.4833 0.516654 12.7167 0.424988 13 0.424988C13.2833 0.424988 13.5167 0.516654 13.7 0.699988L19.3 6.29999C19.4 6.39999 19.4708 6.50832 19.5125 6.62499C19.5542 6.74165 19.575 6.86665 19.575 6.99999C19.575 7.13332 19.5542 7.25832 19.5125 7.37499C19.4708 7.49165 19.4 7.59999 19.3 7.69999L13.7 13.3C13.5167 13.4833 13.2833 13.575 13 13.575C12.7167 13.575 12.4833 13.4833 12.3 13.3Z" fill="#000C1F"/>
</svg>
